<?xml version="1.0" standalone="no"?><!DOCTYPE svg PUBLIC "-//W3C//DTD SVG 1.1//EN" "http://www.w3.org/Graphics/SVG/1.1/DTD/svg11.dtd"><svg t="1632928561176" class="icon" viewBox="0 0 1024 1024" version="1.1" xmlns="http://www.w3.org/2000/svg" p-id="8748" width="128" height="128" xmlns:xlink="http://www.w3.org/1999/xlink"><defs><style type="text/css"></style></defs><path d="M966.656 54.528c11.008 7.850667 16.213333 20.48 14.165333 33.536L846.677333 892.586667a33.621333 33.621333 0 0 1-32.938666 27.818666 36.010667 36.010667 0 0 1-12.629334-2.645333l-237.226666-96.938667-126.805334 154.538667a32.512 32.512 0 0 1-25.6 12.032 33.450667 33.450667 0 0 1-33.536-33.536V771.157333l452.522667-554.666666L270.506667 700.928 63.658667 616.021333a33.194667 33.194667 0 0 1-4.266667-59.733333L931.072 53.589333a33.450667 33.450667 0 0 1 35.584 1.024z" fill="#00bfff" p-id="8749"></path></svg>